<svg width="16" height="16" viewBox="0 0 16 16" fill="none" xmlns="http://www.w3.org/2000/svg">
<path fill-rule="evenodd" clip-rule="evenodd" d="M2.66665 7.33334C2.66665 4.75601 4.75598 2.66668 7.33331 2.66668C9.91064 2.66668 12 4.75601 12 7.33334C12 8.59071 11.5027 9.73193 10.6941 10.5711C10.6714 10.5886 10.6495 10.6078 10.6286 10.6286C10.6078 10.6495 10.5886 10.6714 10.5711 10.6941C9.73192 11.5027 8.59069 12 7.33331 12C4.75598 12 2.66665 9.91067 2.66665 7.33334ZM11.0785 12.0213C10.052 12.8424 8.75 13.3333 7.33331 13.3333C4.0196 13.3333 1.33331 10.6471 1.33331 7.33334C1.33331 4.01963 4.0196 1.33334 7.33331 1.33334C10.647 1.33334 13.3333 4.01963 13.3333 7.33334C13.3333 8.75001 12.8423 10.052 12.0213 11.0785L14.4714 13.5286C14.7318 13.789 14.7318 14.2111 14.4714 14.4714C14.2111 14.7318 13.789 14.7318 13.5286 14.4714L11.0785 12.0213Z" fill="white" fill-opacity="0.25"/>
</svg>
