<svg width="22" height="22" viewBox="0 0 22 22" fill="none" xmlns="http://www.w3.org/2000/svg">
<path d="M8.38177 19.0503V16.239C8.38176 15.5266 8.96105 14.9479 9.67859 14.9434H12.3132C13.034 14.9434 13.6183 15.5235 13.6183 16.239V19.0422C13.6182 19.66 14.1204 20.1622 14.7427 20.1667H16.5402C17.3797 20.1688 18.1855 19.8393 18.7799 19.2507C19.3743 18.6621 19.7084 17.8629 19.7084 17.0294V9.04373C19.7084 8.37048 19.4077 7.73186 18.8876 7.29992L12.7811 2.45145C11.7137 1.6034 10.1891 1.6308 9.1533 2.51664L3.17811 7.29992C2.63337 7.71913 2.30778 8.35964 2.29169 9.04373V17.0213C2.29169 18.7584 3.71012 20.1667 5.45985 20.1667H7.21629C7.51593 20.1689 7.80405 20.0522 8.0167 19.8426C8.22936 19.633 8.34895 19.3478 8.34894 19.0503H8.38177Z" fill="#EFEEE0" fill-opacity="0.25"/>
</svg>
