<svg width="16" height="16" viewBox="0 0 16 16" fill="none" xmlns="http://www.w3.org/2000/svg">
<path d="M2.60667 11.4533C2.48 11.4533 2.35333 11.4066 2.25333 11.3066C1.34 10.3866 0.833334 9.17329 0.833334 7.88662C0.833334 5.21329 3 3.03995 5.66667 3.03995L9.71333 3.05329L8.98667 2.35995C8.78667 2.16662 8.78 1.85329 8.97333 1.65329C9.16667 1.45329 9.48 1.44662 9.68 1.63995L11.3067 3.19995C11.4533 3.33995 11.5 3.55995 11.4267 3.74662C11.3533 3.93329 11.1667 4.05995 10.96 4.05995L5.66667 4.04662C3.55333 4.04662 1.83333 5.77329 1.83333 7.89329C1.83333 8.91329 2.23333 9.87995 2.96 10.6066C3.15333 10.8 3.15333 11.12 2.96 11.3133C2.86 11.4066 2.73333 11.4533 2.60667 11.4533Z" fill="white"/>
<path d="M6.66667 14.5C6.54 14.5 6.42 14.4533 6.32 14.36L4.69333 12.8C4.54667 12.66 4.5 12.44 4.57333 12.2533C4.65333 12.0666 4.84 11.9666 5.04 11.94L10.34 11.9533C12.4533 11.9533 14.1733 10.2266 14.1733 8.10663C14.1733 7.08663 13.7733 6.11996 13.0467 5.39329C12.8533 5.19996 12.8533 4.87996 13.0467 4.68663C13.24 4.49329 13.56 4.49329 13.7533 4.68663C14.6667 5.60663 15.1733 6.81996 15.1733 8.10663C15.1733 10.78 13.0067 12.9533 10.34 12.9533L6.29333 12.94L7.02 13.6333C7.22 13.8266 7.22667 14.14 7.03333 14.34C6.92667 14.4466 6.8 14.5 6.66667 14.5Z" fill="white"/>
</svg>
