<svg width="200" height="200" viewBox="0 0 200 200" fill="none" xmlns="http://www.w3.org/2000/svg">
<g clip-path="url(#clip0_1354_698)">
<path d="M100.208 141.875C119.375 141.875 135.208 157.708 135.208 176.875C135.208 180.208 132.708 183.542 128.542 183.542H70.2084C67.1315 183.542 64.0545 181.411 63.5994 177.807L63.5417 176.875C65.2084 157.708 81.0417 141.875 100.208 141.875ZM165.208 43.5417C201.042 79.375 201.042 137.708 165.208 173.542C162.708 176.042 158.542 176.042 156.042 173.542C153.542 171.042 153.542 166.875 156.042 164.375C186.875 133.542 186.875 83.5417 156.042 52.7083C125.208 21.875 75.2084 21.875 44.375 52.7083C13.5417 83.5417 13.5417 133.542 44.375 164.375C46.875 166.875 46.875 171.042 44.375 173.542C41.875 176.042 37.7084 176.042 35.2084 173.542C-0.62496 137.708 -0.62496 79.375 35.2084 43.5417C71.0417 7.70833 129.375 7.70833 165.208 43.5417ZM146.042 62.7083C171.875 87.7083 171.042 128.542 146.042 154.375C143.542 156.875 139.375 156.875 136.875 154.375C134.375 151.875 134.375 147.708 136.875 145.208C156.875 125.208 156.875 91.875 136.875 71.875C116.875 51.0417 83.5417 51.0417 63.5417 71.875C43.5417 92.7083 43.5417 125.208 63.5417 145.208C66.0417 147.708 66.0417 151.875 63.5417 154.375C61.0417 156.875 56.875 156.875 54.375 154.375C29.375 129.375 29.375 87.7083 54.375 62.7083C79.3751 37.7083 120.208 37.7083 146.042 62.7083ZM100.208 75.2083C117.708 75.2083 131.875 89.375 131.875 106.875C131.875 124.375 117.708 138.542 100.208 138.542C82.7084 138.542 68.5417 124.375 68.5417 106.875C68.5417 89.375 82.7084 75.2083 100.208 75.2083ZM100.208 87.7083C90.2084 87.7083 81.875 96.0417 81.875 106.042C81.875 116.042 90.2084 124.375 100.208 124.375C110.208 124.375 118.542 116.042 118.542 106.042C118.542 96.0417 110.208 87.7083 100.208 87.7083Z" fill="white"/>
</g>
<defs>
<clipPath id="clip0_1354_698">
<rect width="200" height="200" fill="white"/>
</clipPath>
</defs>
</svg>
